<?xml version="1.0" standalone="no"?>
<!DOCTYPE svg PUBLIC "-//W3C//DTD SVG 20010904//EN"
 "http://www.w3.org/TR/2001/REC-SVG-20010904/DTD/svg10.dtd">
<svg version="1.0" xmlns="http://www.w3.org/2000/svg"
 width="25px" height="px" viewBox="0 0 512.000000 512.000000"
 preserveAspectRatio="xMidYMid meet">

<g transform="translate(0.000000,512.000000) scale(0.100000,-0.100000)"
fill="#000000" stroke="none">
<path d="M430 4420 l0 -700 700 0 700 0 0 200 0 200 -382 2 -382 3 99 83 c337
281 721 447 1152 497 712 83 1436 -205 1894 -754 565 -677 668 -1608 263
-2390 l-54 -104 0 -379 0 -378 -378 0 -379 0 -104 -54 c-471 -246 -1017 -309
-1539 -176 -789 200 -1416 857 -1574 1652 -25 125 -46 302 -46 390 l0 48 -202
0 -201 0 7 -128 c34 -649 296 -1234 757 -1689 312 -308 652 -510 1073 -637
592 -180 1296 -122 1838 150 l89 44 529 0 530 0 0 529 0 529 55 113 c337 702
323 1554 -37 2257 -270 528 -755 976 -1293 1195 -308 126 -576 183 -910 193
-626 21 -1230 -188 -1717 -593 l-88 -73 0 335 0 335 -200 0 -200 0 0 -700z" fill="#FFFFFF"/>
<path d="M2012 3340 c-109 -29 -187 -74 -272 -160 -87 -86 -131 -163 -160
-276 -19 -72 -20 -112 -20 -611 l0 -533 200 0 200 0 0 200 0 200 200 0 200 0
0 -200 0 -200 200 0 200 0 0 533 c0 499 -1 539 -20 611 -11 43 -34 105 -52
139 -42 81 -164 203 -245 245 -132 69 -291 88 -431 52z m258 -414 c21 -13 48
-42 61 -63 22 -34 24 -52 27 -170 l4 -133 -201 0 -201 0 0 113 c0 61 5 129 11
150 13 46 76 113 121 126 53 16 135 6 178 -23z" fill="#FFFFFF"/>
<path d="M3160 2560 l0 -800 200 0 200 0 0 800 0 800 -200 0 -200 0 0 -800z" fill="#FFFFFF"/>
</g>
</svg>
