<?xml version="1.0" standalone="no"?>
<!DOCTYPE svg PUBLIC "-//W3C//DTD SVG 20010904//EN"
 "http://www.w3.org/TR/2001/REC-SVG-20010904/DTD/svg10.dtd">
<svg version="1.0" xmlns="http://www.w3.org/2000/svg"
 width="30px" height="30px" viewBox="0 0 512.000000 512.000000"
 preserveAspectRatio="xMidYMid meet">

<g transform="translate(0.000000,512.000000) scale(0.100000,-0.100000)"
fill="#000000" stroke="none">
<path d="M2355 4724 c-372 -53 -632 -153 -918 -354 -113 -80 -332 -295 -416
-410 -663 -900 -433 -2158 505 -2763 84 -55 267 -147 341 -173 l52 -18 3 -191
c3 -184 4 -192 31 -247 30 -62 83 -115 149 -150 36 -19 58 -23 138 -23 79 0
102 4 136 22 126 67 1289 835 1395 921 127 103 290 281 380 415 334 498 417
1104 229 1666 -95 284 -232 510 -445 730 -286 296 -629 478 -1050 558 -77 15
-461 27 -530 17z m420 -324 c448 -64 862 -322 1108 -690 282 -424 351 -922
193 -1393 -98 -294 -299 -575 -540 -756 -97 -73 -427 -292 -961 -638 l-330
-214 -5 234 -5 235 -31 39 c-26 33 -47 44 -145 78 -277 98 -467 219 -662 425
-485 510 -575 1284 -221 1894 193 333 497 583 861 709 91 32 247 70 328 80 65
8 344 6 410 -3z" fill="#FFFFFF"/>
<path d="M2372 3911 c-149 -38 -288 -127 -389 -251 -57 -70 -145 -236 -164
-310 -29 -111 43 -210 151 -210 79 0 126 41 163 141 50 140 130 235 244 291
65 32 72 33 188 33 111 0 125 -2 180 -28 69 -32 128 -85 158 -142 16 -30 22
-64 25 -138 4 -90 2 -101 -23 -153 -22 -46 -47 -72 -134 -143 -324 -264 -401
-402 -401 -719 0 -118 2 -130 24 -163 47 -69 151 -91 216 -46 60 40 73 74 80
222 6 113 11 141 34 190 35 77 82 133 169 203 263 208 336 315 356 522 33 323
-134 580 -444 686 -69 24 -98 28 -220 31 -111 2 -155 -1 -213 -16z" fill="#FFFFFF"/>
<path d="M2460 1868 c-66 -34 -93 -79 -88 -149 7 -94 66 -149 161 -149 89 0
167 93 152 181 -12 72 -91 139 -165 139 -9 0 -36 -10 -60 -22z" fill="#FFFFFF"/>
</g>
</svg>
