<svg xmlns="http://www.w3.org/2000/svg" xmlns:xlink="http://www.w3.org/1999/xlink" version="1.1" width="25px" height="25px" viewBox="0 0 256 256" xml:space="preserve"><defs>
</defs>
<g style="stroke: none; stroke-width: 0; stroke-dasharray: none; stroke-linecap: butt; stroke-linejoin: miter; stroke-miterlimit: 10; fill: none; fill-rule: nonzero; opacity: 1;" transform="translate(1.4065934065934016 1.4065934065934016) scale(2.81 2.81)" >
	<path d="M 45 18.719 c -1.657 0 -3 -1.343 -3 -3 V 3 c 0 -1.657 1.343 -3 3 -3 c 1.657 0 3 1.343 3 3 v 12.719 C 48 17.376 46.657 18.719 45 18.719 z" style="stroke: none; stroke-width: 1; stroke-dasharray: none; stroke-linecap: butt; stroke-linejoin: miter; stroke-miterlimit: 10; fill: rgb(255,255,255); fill-rule: nonzero; opacity: 1;" transform=" matrix(1 0 0 1 0 0) " stroke-linecap="round" />
	<path d="M 55.267 18.719 c -1.657 0 -3 -1.343 -3 -3 V 3 c 0 -1.657 1.343 -3 3 -3 s 3 1.343 3 3 v 12.719 C 58.267 17.376 56.924 18.719 55.267 18.719 z" style="stroke: none; stroke-width: 1; stroke-dasharray: none; stroke-linecap: butt; stroke-linejoin: miter; stroke-miterlimit: 10; fill: rgb(255,255,255); fill-rule: nonzero; opacity: 1;" transform=" matrix(1 0 0 1 0 0) " stroke-linecap="round" />
	<path d="M 65.533 18.719 c -1.657 0 -3 -1.343 -3 -3 V 3 c 0 -1.657 1.343 -3 3 -3 s 3 1.343 3 3 v 12.719 C 68.533 17.376 67.19 18.719 65.533 18.719 z" style="stroke: none; stroke-width: 1; stroke-dasharray: none; stroke-linecap: butt; stroke-linejoin: miter; stroke-miterlimit: 10; fill: rgb(255,255,255); fill-rule: nonzero; opacity: 1;" transform=" matrix(1 0 0 1 0 0) " stroke-linecap="round" />
	<path d="M 34.733 18.719 c -1.657 0 -3 -1.343 -3 -3 V 3 c 0 -1.657 1.343 -3 3 -3 s 3 1.343 3 3 v 12.719 C 37.733 17.376 36.39 18.719 34.733 18.719 z" style="stroke: none; stroke-width: 1; stroke-dasharray: none; stroke-linecap: butt; stroke-linejoin: miter; stroke-miterlimit: 10; fill: rgb(255,255,255); fill-rule: nonzero; opacity: 1;" transform=" matrix(1 0 0 1 0 0) " stroke-linecap="round" />
	<path d="M 24.467 18.719 c -1.657 0 -3 -1.343 -3 -3 V 3 c 0 -1.657 1.343 -3 3 -3 s 3 1.343 3 3 v 12.719 C 27.467 17.376 26.124 18.719 24.467 18.719 z" style="stroke: none; stroke-width: 1; stroke-dasharray: none; stroke-linecap: butt; stroke-linejoin: miter; stroke-miterlimit: 10; fill: rgb(255,255,255); fill-rule: nonzero; opacity: 1;" transform=" matrix(1 0 0 1 0 0) " stroke-linecap="round" />
	<path d="M 45 90 c -1.657 0 -3 -1.343 -3 -3 V 74.281 c 0 -1.657 1.343 -3 3 -3 c 1.657 0 3 1.343 3 3 V 87 C 48 88.657 46.657 90 45 90 z" style="stroke: none; stroke-width: 1; stroke-dasharray: none; stroke-linecap: butt; stroke-linejoin: miter; stroke-miterlimit: 10; fill: rgb(255,255,255); fill-rule: nonzero; opacity: 1;" transform=" matrix(1 0 0 1 0 0) " stroke-linecap="round" />
	<path d="M 55.267 90 c -1.657 0 -3 -1.343 -3 -3 V 74.281 c 0 -1.657 1.343 -3 3 -3 s 3 1.343 3 3 V 87 C 58.267 88.657 56.924 90 55.267 90 z" style="stroke: none; stroke-width: 1; stroke-dasharray: none; stroke-linecap: butt; stroke-linejoin: miter; stroke-miterlimit: 10; fill: rgb(255,255,255); fill-rule: nonzero; opacity: 1;" transform=" matrix(1 0 0 1 0 0) " stroke-linecap="round" />
	<path d="M 65.533 90 c -1.657 0 -3 -1.343 -3 -3 V 74.281 c 0 -1.657 1.343 -3 3 -3 s 3 1.343 3 3 V 87 C 68.533 88.657 67.19 90 65.533 90 z" style="stroke: none; stroke-width: 1; stroke-dasharray: none; stroke-linecap: butt; stroke-linejoin: miter; stroke-miterlimit: 10; fill: rgb(255,255,255); fill-rule: nonzero; opacity: 1;" transform=" matrix(1 0 0 1 0 0) " stroke-linecap="round" />
	<path d="M 34.733 90 c -1.657 0 -3 -1.343 -3 -3 V 74.281 c 0 -1.657 1.343 -3 3 -3 s 3 1.343 3 3 V 87 C 37.733 88.657 36.39 90 34.733 90 z" style="stroke: none; stroke-width: 1; stroke-dasharray: none; stroke-linecap: butt; stroke-linejoin: miter; stroke-miterlimit: 10; fill: rgb(255,255,255); fill-rule: nonzero; opacity: 1;" transform=" matrix(1 0 0 1 0 0) " stroke-linecap="round" />
	<path d="M 24.467 90 c -1.657 0 -3 -1.343 -3 -3 V 74.281 c 0 -1.657 1.343 -3 3 -3 s 3 1.343 3 3 V 87 C 27.467 88.657 26.124 90 24.467 90 z" style="stroke: none; stroke-width: 1; stroke-dasharray: none; stroke-linecap: butt; stroke-linejoin: miter; stroke-miterlimit: 10; fill: rgb(255,255,255); fill-rule: nonzero; opacity: 1;" transform=" matrix(1 0 0 1 0 0) " stroke-linecap="round" />
	<path d="M 15.719 48 H 3 c -1.657 0 -3 -1.343 -3 -3 c 0 -1.657 1.343 -3 3 -3 h 12.719 c 1.657 0 3 1.343 3 3 C 18.719 46.657 17.376 48 15.719 48 z" style="stroke: none; stroke-width: 1; stroke-dasharray: none; stroke-linecap: butt; stroke-linejoin: miter; stroke-miterlimit: 10; fill: rgb(255,255,255); fill-rule: nonzero; opacity: 1;" transform=" matrix(1 0 0 1 0 0) " stroke-linecap="round" />
	<path d="M 15.719 37.733 H 3 c -1.657 0 -3 -1.343 -3 -3 s 1.343 -3 3 -3 h 12.719 c 1.657 0 3 1.343 3 3 S 17.376 37.733 15.719 37.733 z" style="stroke: none; stroke-width: 1; stroke-dasharray: none; stroke-linecap: butt; stroke-linejoin: miter; stroke-miterlimit: 10; fill: rgb(255,255,255); fill-rule: nonzero; opacity: 1;" transform=" matrix(1 0 0 1 0 0) " stroke-linecap="round" />
	<path d="M 15.719 27.467 H 3 c -1.657 0 -3 -1.343 -3 -3 s 1.343 -3 3 -3 h 12.719 c 1.657 0 3 1.343 3 3 S 17.376 27.467 15.719 27.467 z" style="stroke: none; stroke-width: 1; stroke-dasharray: none; stroke-linecap: butt; stroke-linejoin: miter; stroke-miterlimit: 10; fill: rgb(255,255,255); fill-rule: nonzero; opacity: 1;" transform=" matrix(1 0 0 1 0 0) " stroke-linecap="round" />
	<path d="M 15.719 58.267 H 3 c -1.657 0 -3 -1.343 -3 -3 s 1.343 -3 3 -3 h 12.719 c 1.657 0 3 1.343 3 3 S 17.376 58.267 15.719 58.267 z" style="stroke: none; stroke-width: 1; stroke-dasharray: none; stroke-linecap: butt; stroke-linejoin: miter; stroke-miterlimit: 10; fill: rgb(255,255,255); fill-rule: nonzero; opacity: 1;" transform=" matrix(1 0 0 1 0 0) " stroke-linecap="round" />
	<path d="M 15.719 68.533 H 3 c -1.657 0 -3 -1.343 -3 -3 s 1.343 -3 3 -3 h 12.719 c 1.657 0 3 1.343 3 3 S 17.376 68.533 15.719 68.533 z" style="stroke: none; stroke-width: 1; stroke-dasharray: none; stroke-linecap: butt; stroke-linejoin: miter; stroke-miterlimit: 10; fill: rgb(255,255,255); fill-rule: nonzero; opacity: 1;" transform=" matrix(1 0 0 1 0 0) " stroke-linecap="round" />
	<path d="M 87 48 H 74.281 c -1.657 0 -3 -1.343 -3 -3 c 0 -1.657 1.343 -3 3 -3 H 87 c 1.657 0 3 1.343 3 3 C 90 46.657 88.657 48 87 48 z" style="stroke: none; stroke-width: 1; stroke-dasharray: none; stroke-linecap: butt; stroke-linejoin: miter; stroke-miterlimit: 10; fill: rgb(255,255,255); fill-rule: nonzero; opacity: 1;" transform=" matrix(1 0 0 1 0 0) " stroke-linecap="round" />
	<path d="M 87 37.733 H 74.281 c -1.657 0 -3 -1.343 -3 -3 s 1.343 -3 3 -3 H 87 c 1.657 0 3 1.343 3 3 S 88.657 37.733 87 37.733 z" style="stroke: none; stroke-width: 1; stroke-dasharray: none; stroke-linecap: butt; stroke-linejoin: miter; stroke-miterlimit: 10; fill: rgb(255,255,255); fill-rule: nonzero; opacity: 1;" transform=" matrix(1 0 0 1 0 0) " stroke-linecap="round" />
	<path d="M 87 27.467 H 74.281 c -1.657 0 -3 -1.343 -3 -3 s 1.343 -3 3 -3 H 87 c 1.657 0 3 1.343 3 3 S 88.657 27.467 87 27.467 z" style="stroke: none; stroke-width: 1; stroke-dasharray: none; stroke-linecap: butt; stroke-linejoin: miter; stroke-miterlimit: 10; fill: rgb(255,255,255); fill-rule: nonzero; opacity: 1;" transform=" matrix(1 0 0 1 0 0) " stroke-linecap="round" />
	<path d="M 87 58.267 H 74.281 c -1.657 0 -3 -1.343 -3 -3 s 1.343 -3 3 -3 H 87 c 1.657 0 3 1.343 3 3 S 88.657 58.267 87 58.267 z" style="stroke: none; stroke-width: 1; stroke-dasharray: none; stroke-linecap: butt; stroke-linejoin: miter; stroke-miterlimit: 10; fill: rgb(255,255,255); fill-rule: nonzero; opacity: 1;" transform=" matrix(1 0 0 1 0 0) " stroke-linecap="round" />
	<path d="M 87 68.533 H 74.281 c -1.657 0 -3 -1.343 -3 -3 s 1.343 -3 3 -3 H 87 c 1.657 0 3 1.343 3 3 S 88.657 68.533 87 68.533 z" style="stroke: none; stroke-width: 1; stroke-dasharray: none; stroke-linecap: butt; stroke-linejoin: miter; stroke-miterlimit: 10; fill: rgb(255,255,255); fill-rule: nonzero; opacity: 1;" transform=" matrix(1 0 0 1 0 0) " stroke-linecap="round" />
	<path d="M 74.281 12.719 H 15.719 c -1.657 0 -3 1.343 -3 3 v 58.562 c 0 1.657 1.343 3 3 3 h 58.562 c 1.657 0 3 -1.343 3 -3 V 15.719 C 77.281 14.063 75.938 12.719 74.281 12.719 z M 48.111 59.046 c 0 1.657 -1.343 3 -3 3 c -1.657 0 -3 -1.343 -3 -3 v -9.752 H 30.675 v 9.752 c 0 1.657 -1.343 3 -3 3 s -3 -1.343 -3 -3 V 39.672 c 0 -6.461 5.257 -11.718 11.718 -11.718 s 11.718 5.257 11.718 11.718 V 59.046 z M 62.325 56.046 c 1.657 0 3 1.343 3 3 s -1.343 3 -3 3 h -7.697 c -1.657 0 -3 -1.343 -3 -3 s 1.343 -3 3 -3 h 0.849 V 33.954 h -0.849 c -1.657 0 -3 -1.343 -3 -3 s 1.343 -3 3 -3 h 7.697 c 1.657 0 3 1.343 3 3 s -1.343 3 -3 3 h -0.849 v 22.092 H 62.325 z" style="stroke: none; stroke-width: 1; stroke-dasharray: none; stroke-linecap: butt; stroke-linejoin: miter; stroke-miterlimit: 10; fill: rgb(255,255,255); fill-rule: nonzero; opacity: 1;" transform=" matrix(1 0 0 1 0 0) " stroke-linecap="round" />
	<path d="M 36.393 33.954 c -3.153 0 -5.718 2.565 -5.718 5.718 v 3.622 h 11.437 v -3.622 C 42.111 36.52 39.546 33.954 36.393 33.954 z" style="stroke: none; stroke-width: 1; stroke-dasharray: none; stroke-linecap: butt; stroke-linejoin: miter; stroke-miterlimit: 10; fill: rgb(255,255,255); fill-rule: nonzero; opacity: 1;" transform=" matrix(1 0 0 1 0 0) " stroke-linecap="round" />
</g>
</svg>