<svg id="SvgjsSvg1037" width="288" height="288" xmlns="http://www.w3.org/2000/svg" version="1.1" xmlns:xlink="http://www.w3.org/1999/xlink" xmlns:svgjs="http://svgjs.com/svgjs"><defs id="SvgjsDefs1038"></defs><g id="SvgjsG1039"><svg xmlns="http://www.w3.org/2000/svg" viewBox="0 0 64 64" width="288" height="288"><g fill="#fff6f6" data-name="Ai" class="color222 svgShape"><path d="M52.68 54.18H11.32a1.5 1.5 0 0 1-1.5-1.5V11.32a1.5 1.5 0 0 1 1.5-1.5h41.36a1.5 1.5 0 0 1 1.5 1.5v41.36a1.5 1.5 0 0 1-1.5 1.5Zm-39.86-3h38.36V12.82H12.82Z" fill="#ffffff" class="color000 svgShape"></path><path d="m34.79 32.45-.87-5.32a5.49 5.49 0 0 0-10.84 0l-.9 5.55L21 39.76a1.5 1.5 0 1 0 3 .48l.94-5.78.49-3 .57-3.87a2.49 2.49 0 0 1 4.92 0l.63 3.87.49 3 .96 5.78a1.5 1.5 0 0 0 1.5 1.26h.24A1.5 1.5 0 0 0 36 39.76L34.88 33Z" fill="#ffffff" class="color000 svgShape"></path><path d="M34.88 33a1.49 1.49 0 0 1-1.49 1.41h-9.74a1.5 1.5 0 0 1-1.5-1.5 1.53 1.53 0 0 1 0-.3 1.49 1.49 0 0 1 1.47-1.2h9.74a1.49 1.49 0 0 1 1.4 1zm6.62 8.5A1.5 1.5 0 0 1 40 40V29a1.5 1.5 0 0 1 3 0v11a1.5 1.5 0 0 1-1.5 1.5zm0-15.19a1.56 1.56 0 0 1-.57-.11 1.51 1.51 0 0 1-.49-.33 1.63 1.63 0 0 1-.33-.49 1.56 1.56 0 0 1-.11-.57 1.5 1.5 0 0 1 .44-1.06 1.45 1.45 0 0 1 .23-.19l.26-.14.28-.08a1.42 1.42 0 0 1 .58 0l.28.08.26.14a2.11 2.11 0 0 1 .23.19 1.5 1.5 0 0 1 .44 1.06 1.56 1.56 0 0 1-.11.57 1.63 1.63 0 0 1-.33.49 1.51 1.51 0 0 1-.49.33 1.56 1.56 0 0 1-.57.11z" fill="#ffffff" class="color000 svgShape"></path></g></svg></g></svg>