<svg xmlns="http://www.w3.org/2000/svg"  viewBox="0 0 50 50" width="50px" height="50px"><path d="M 14 3.9902344 C 8.4886661 3.9902344 4 8.4789008 4 13.990234 L 4 35.990234 C 4 41.501568 8.4886661 45.990234 14 45.990234 L 36 45.990234 C 41.511334 45.990234 46 41.501568 46 35.990234 L 46 13.990234 C 46 8.4789008 41.511334 3.9902344 36 3.9902344 L 14 3.9902344 z M 25 8 C 34.39 8 42 15.61 42 25 C 42 34.39 34.39 42 25 42 C 15.61 42 8 34.39 8 25 C 8 15.61 15.61 8 25 8 z M 25 11 C 23.9 11 22.830687 11.129094 21.804688 11.371094 C 20.513687 11.676094 19.900453 13.167406 20.564453 14.316406 L 21.367188 15.705078 C 24.100187 14.642078 27.270953 14.762844 30.001953 16.339844 C 32.733953 17.916844 34.414422 20.604 34.857422 23.5 L 36.478516 23.5 C 37.793516 23.5 38.787156 22.240469 38.410156 20.980469 C 36.682156 15.208469 31.333 11 25 11 z M 16.033203 14.824219 C 15.585236 14.865879 15.148719 15.06075 14.808594 15.421875 C 12.449594 17.924875 11 21.29 11 25 C 11 28.71 12.449594 32.075125 14.808594 34.578125 C 15.715594 35.540125 17.309703 35.318828 17.970703 34.173828 L 18.767578 32.794922 C 16.480578 30.959922 15 28.154 15 25 C 15 21.845 16.486438 19.046844 18.773438 17.214844 L 17.972656 15.826172 C 17.558906 15.110547 16.779814 14.754785 16.033203 14.824219 z M 24.855469 17.017578 C 24.011004 17.037646 23.175859 17.189594 22.380859 17.464844 L 25.289062 22.5 C 25.646063 23.119 26.306484 23.5 27.021484 23.5 L 32.839844 23.5 C 32.416844 21.295 31.089 19.278266 29 18.072266 C 27.695 17.319141 26.26291 16.984131 24.855469 17.017578 z M 19.78125 18.960938 C 18.08325 20.429937 17 22.588 17 25 C 17 27.411 18.087203 29.566156 19.783203 31.035156 L 22.691406 26 C 23.048406 25.381 23.048406 24.619 22.691406 24 L 19.78125 18.960938 z M 27.019531 26.5 C 26.305531 26.5 25.644109 26.881 25.287109 27.5 L 22.378906 32.539062 C 24.500906 33.275063 26.911 33.133734 29 31.927734 C 31.088 30.722734 32.411938 28.703 32.835938 26.5 L 27.019531 26.5 z M 34.865234 26.5 C 34.419234 29.398 32.731 32.083156 30 33.660156 C 27.267 35.238156 24.099141 35.349156 21.369141 34.285156 L 20.564453 35.683594 C 19.901453 36.832594 20.513687 38.323906 21.804688 38.628906 C 22.830687 38.870906 23.9 39 25 39 C 31.333 39 36.682156 34.791531 38.410156 29.019531 C 38.787156 27.759531 37.794516 26.5 36.478516 26.5 L 34.865234 26.5 z"/></svg>